<?xml version="1.0" encoding="utf-8"?>
<!-- Generator: Adobe Illustrator 21.0.2, SVG Export Plug-In . SVG Version: 6.00 Build 0)  -->
<svg version="1.1" xmlns="http://www.w3.org/2000/svg" xmlns:xlink="http://www.w3.org/1999/xlink" x="0px" y="0px"
	 viewBox="0 0 500 500" style="enable-background:new 0 0 500 500;" xml:space="preserve">
<style type="text/css">
	.st0{fill:#1799D3;}
	.st1{fill:#3A97BF;}
	.st2{fill:#B5665D;}
	.st3{fill:#A5453D;}
	.st4{fill:#223A58;}
	.st5{fill:#FFFFFF;}
	.st6{fill:#8C332C;}
	.st7{fill:none;stroke:#4DA6D7;stroke-width:2;stroke-miterlimit:10;}
	.st8{fill:#4DA6D7;}
	.st9{fill:none;stroke:#4DA6D7;stroke-width:2;stroke-linecap:round;stroke-miterlimit:10;}
	.st10{fill:#1C344F;}
	.st11{fill:#F5D48E;}
	.st12{opacity:0.49;fill:#E8BB6B;}
	.st13{fill:#4B74B5;}
	.st14{fill:#F9DDAA;}
	.st15{fill:#D6E8FC;stroke:#ED7A63;stroke-width:2;stroke-linecap:round;stroke-linejoin:round;stroke-miterlimit:10;}
	.st16{fill:#C3DDF4;}
	.st17{fill:#ED7A63;stroke:#ED7A63;stroke-width:2;stroke-linecap:round;stroke-linejoin:round;stroke-miterlimit:10;}
	.st18{clip-path:url(#SVGID_2_);fill:#BBF2FF;stroke:#000000;stroke-width:0.5;stroke-miterlimit:10;}
</style>
<g id="BACKGROUND">
	<g>
		<path class="st0" d="M454.9,197.2c0,0,61.3,230.4-172.6,251.5C48.4,469.8,8.2,277.3,54.9,164.6S407.2-47.1,454.9,197.2z"/>
	</g>
</g>
<g id="OBJECTS">
	<g>
		<g>
			<g>
				<polygon class="st1" points="284.2,78 261.5,93.8 262.4,98 283.1,87.1 				"/>
				<g>
					<g>
						<path class="st2" d="M204,226.9c-5.3-6.1-10.4-12.4-15.7-18.5c4.2-1.1,8.2-3.1,7.2-9.6c-2-12.5-15.9-75.2-15.9-75.2l63.8,37.6
							c0,0-0.7,38.3,10.5,40.4c11.2,2.1,14.5,11.8-23.7,22.3C219.8,226.6,211.1,227.4,204,226.9z"/>
						<path class="st3" d="M187.2,141.2c-1.4-5.8-2.1-10.6-2.2-14.6l58.5,34.4c0,0-0.4,25.8,5.6,36.2
							C233,199.8,200.7,197.3,187.2,141.2z"/>
					</g>
					<g>
						<g>
							<path class="st2" d="M256.9,46.7c0,0,48.8,121.8-10.2,129.6c-59.1,7.8-69.9-56.7-72.3-72.3c-2.4-15.7-5.4-53.7,32-63.9
								C243.7,29.8,256.9,46.7,256.9,46.7z"/>
							<path class="st2" d="M185.2,132.3c0,0-7.2-37.5-25.5-28.2c-15.2,7.7,10,51.2,25.5,36.6C197,129.6,185.2,132.3,185.2,132.3z"
								/>
						</g>
						<path class="st4" d="M275.9,129.2c0,0-2.3,15.5-6,19.4c-7,7.2-6.2-13.6-9.5-17.3c-3.3-3.7-40.8,0.8-49.1,3.2
							c-8.4,2.4,4.1,23.1-8.3,21.5c-4.9-0.6-9.1-9.6-13.4-23.8c-3.1-14.6-7.5-37.1-8.7-50.3l7.2-11l-1.2-14.1
							c0,0,22.4-13.7,70.1-10.2c0,0-10.1-30.7-55.8-23.2c-45.7,7.6-58.5,22.3-41.5,80.6c0,0,11.7-6.1,16.3,11.3
							c2.9,12.5,4.6,24.5,7.9,34.6l0,0c0,0-4.1,33.1,29.6,28.8c1.6,3.7,7.1,11.6,24,11.4c12.5-0.1,18.4-6.4,21.1-11.7
							c2.7,0.7,6,0.8,9.5-0.3C278.8,174.8,293.5,147.8,275.9,129.2z"/>
					</g>
				</g>
				<g>
					<path class="st5" d="M255.8,139.6h-39.5C216.3,139.6,227.8,158.1,255.8,139.6z"/>
					<g>
						<path class="st6" d="M237.7,90.8c5,10.7,9,21.8,12.4,33.2c0.1,0.3,0,0.7-0.3,0.8c-4.1,2-8.1,4-12.3,5.9
							c3.8-2.4,7.7-4.7,11.6-7l-0.3,0.8C244.4,113.5,240.5,102.3,237.7,90.8L237.7,90.8z"/>
					</g>
					
						<ellipse transform="matrix(0.9911 -0.1328 0.1328 0.9911 -12.0126 28.1026)" class="st4" cx="204.6" cy="104.1" rx="3.5" ry="7.2"/>
					
						<ellipse transform="matrix(0.9911 -0.1328 0.1328 0.9911 -10.8036 34.0651)" class="st4" cx="249.9" cy="98" rx="3.5" ry="7.2"/>
					<g>
						<path class="st6" d="M176.1,137.7c-2.7-1.5-6.2-5.4-2.1-7.7c0,0-0.4,0.6-0.4,0.6c-0.4-5.2-1.1-20.7-8.1-20.7
							c-5.3,0.2-4.3,8.1-4.1,11.9c-1.9-5-2.4-14.6,5.5-13.6c7.9,1.7,8.3,16,8.2,22.5c0,0.3-0.2,0.5-0.4,0.6
							C171.4,132.7,174.6,136.2,176.1,137.7L176.1,137.7z"/>
					</g>
				</g>
			</g>
			<g>
				<g>
					<path class="st7" d="M188.4,87.1c0,0-0.9,31.8,20.6,30.7c21.6-1.1,16.6-34.2,16.6-34.2L188.4,87.1z"/>
					<polygon class="st8" points="188.4,94.9 181.7,95.1 180.6,86.3 226.1,82.7 226.1,87.2 188.4,90.1 					"/>
				</g>
				<g>
					<path class="st7" d="M276.7,80.1c0,0,6.1,31.2-15.4,33.6c-21.5,2.4-22-31.1-22-31.1L276.7,80.1z"/>
					<polygon class="st8" points="277.9,87.8 283.1,87.1 284.2,78 238.7,81.9 239.5,86.3 277.1,83.1 					"/>
				</g>
				<path class="st9" d="M226.1,93.8c0,0,7.7-10.2,14.5-1"/>
				<path class="st1" d="M180.6,86.3L163,103.1c0,0,3.7-0.3,5.7,0.9l13.1-9L180.6,86.3z"/>
			</g>
		</g>
		<g>
			<g>
				<path class="st4" d="M181.5,500l1-61.4l140.6-15.9c0,0,2.8-35.6,9.3,77.3H181.5z"/>
				<path class="st10" d="M191.4,457.8c6.7,4.1,13.7,7.8,20.5,11.6c7.2,4,14.5,7.7,22.5,9.9c8.5,2.3,17.5,3.4,26.3,4.1
					c17.2,1.5,35.9,1.3,52.6-3.7c6.2-1.8,11.9-4.6,17.5-7.7c-5.3-78.6-7.6-49.3-7.6-49.3l-140.6,15.9l-0.2,13.2
					C185.1,454.1,188.3,456,191.4,457.8z"/>
			</g>
			<g>
				<g>
					<g>
						<path class="st2" d="M342.5,276.7c0,0,27.9,116,9.6,122.2c-18.3,6.3-40.8,0-40.8,0l-8.8-110.3L342.5,276.7z"/>
						<path class="st3" d="M314,310.1c8.5-2.4,16.9-5.6,24.7-9.8c2.8-1.5,5.5-3.2,8-5.1c-2.4-11.1-4.1-18.5-4.1-18.5l-40,11.9
							l1.9,23.9C307.6,311.8,310.8,311,314,310.1z"/>
					</g>
					<g>
						<path class="st11" d="M306.1,211.1c0,0,24.3,6.1,49.8,69.9c0,0-8.7,10.3-41.9,17.1C280.8,304.8,306.1,211.1,306.1,211.1z"/>
						<path class="st12" d="M328.2,275.8c-4.1-7.9-9.3-15.4-14.6-22.5c-4.1-5.6-8.5-11-13.2-16.1c-4.8,27.2-8,65.2,13.6,60.9
							c8.6-1.8,15.6-3.7,21.2-5.7C333.1,286.7,331,281.1,328.2,275.8z"/>
					</g>
				</g>
				<g>
					<path class="st11" d="M306.1,211.1l-31.3-4.4c0,0-3.7-0.1-9.8-0.1c-0.5,1.7-1.9,3.2-4.2,3.2c-0.3,0-0.5,0-0.8,0
						c-7.9,8.9-18.3,13.1-31,9.9c-7.9-2-15.1-5.9-22.4-9.4c-1.5,0.2-3.1,0.4-4.6,0.7c-36,5.7-70.1,16.8-70.1,16.8
						c1.6,41.9,47.6,230.8,47.6,230.8c30.5,25,72.4,18.4,94.9,15c2-0.3,1.7-35.5,1.7-35.5s8.7,33.9,11.3,33.4
						c27.2-5.7,45.3-29.4,45.3-29.4C327.1,328.5,300.8,209.4,306.1,211.1z"/>
					<g>
						<polygon class="st13" points="248.3,216.2 221.7,218.6 217.2,231.4 232.8,241.8 236.8,392.4 267,411.9 282.2,385.1 
							248.3,241.8 254.3,226.5 						"/>
						<path class="st14" d="M229.7,214.8l-9.2,28c0,0-33.9-11.4-46-32.4l11.9-15.8L229.7,214.8z"/>
						<path class="st14" d="M262.9,194.6l-20.7,17.1l14.3,26.1c0,0,15.1-16.8,19.7-33.7L262.9,194.6z"/>
					</g>
				</g>
				<g>
					<g>
						<g>
							<path class="st15" d="M286.8,294.6L315,420.4c0,0,5.7,11.6-14.5,16.2C280.3,441.2,210,449,210,449l-25.9-123.6l12-19.9
								L286.8,294.6z"/>
							<polygon class="st16" points="226.9,425.9 211.1,446.9 184.5,320.8 195.1,302.2 							"/>
						</g>
						<polygon class="st17" points="222.2,433.9 195.1,302.2 286.8,294.6 315,420.4 						"/>
					</g>
					<g>
						<path class="st2" d="M195.6,413.4c0,0-7-3.7-0.3-8c0,0-7.4-5.6-1.6-7.7c0,0-8.8-1.7,5.6-6.6c2.3-0.8,7.3-2,14-3.6
							c-17.1-19.9,6.9-6.6,12.7-2.8c37.8-8.1,100.2-20,100.2-20s38,13,29.3,31.5c-8.7,18.5-146.5,29.8-156.7,24.7
							C188.5,415.9,195.6,413.4,195.6,413.4z"/>
						<path class="st3" d="M193.7,397.8c-5.9,2.1,1.6,7.7,1.6,7.7c-6.7,4.2,0.3,8,0.3,8s-7.1,2.5,3.1,7.7c2.8,1.4,15.1,1.6,31.6,0.7
							c3.4-1.5,6.8-3,10.2-4.6c14.8-7.1,28.7-15.8,41.9-25.5c9.2-6.8,20.2-13.6,26.2-23.4c-21.3,4.1-57.4,11.2-82.6,16.6
							c-5.8-3.8-29.8-17.1-12.7,2.8c-6.7,1.5-11.6,2.8-14,3.6C184.9,396.1,193.7,397.8,193.7,397.8z"/>
					</g>
					<g>
						<g>
							<g>
								<path class="st2" d="M307.8,358.7c0,0,4.4-5.1-0.5-5.8c0,0,5.5-6.4-3.9-6.2c-2.3,0.1-4.4,0.8-6.3,1.2c3.4-2,6.4-4.7,6.1-7.6
									c0,0,0.3-1.9-4.8-0.5c-5.2,1.4-10.5,1.8-23.9,2.6c0,0-4.4,0.7-10.4,6.4c-3.5,3.3-5.4,7.7-6.4,10.7
									c-28.2,2.4-63.7,4.7-80.3,6.9c-0.6-17.1-3.4-87.1-9.3-87.7c-6.9-0.8-51.5,36.8-51.5,36.8s4.5,88.2,18.7,103
									c7.4,7.7,94.6-13,135.3-31.4c0.8-0.2,1.3-0.4,1.7-0.5c3.8-1.4,29.6-10.4,37-19c1.1-1.3-0.8-3.6-0.8-3.6
									S313,360.5,307.8,358.7z"/>
								<g>
									<path class="st3" d="M297.3,347.6c2.9-1.8,5.6-4.1,5.8-6.6c-1.8,2.6-6,5.2-17.8,8.1C285.3,349.1,289.9,348.5,297.3,347.6z"
										/>
									<path class="st3" d="M128.1,321.5c7.6,2.6,15.2,3.5,23.2,3.5c8.1,0,16.2-0.7,24-2.1c-1.5-21.4-3.8-43.9-7.4-44.3
										c-6.9-0.8-51.5,36.8-51.5,36.8s0,0.6,0.1,1.6C120.3,318.6,124.1,320.1,128.1,321.5z"/>
								</g>
							</g>
							<path class="st11" d="M184.5,315.4c0,0,2.2-50.9-7.7-68.1c-9.9-17.1-28-26.3-44.8-19.5c-24.1,9.9-24.2,86.2-24.2,86.2
								S147.9,325.5,184.5,315.4z"/>
						</g>
					</g>
				</g>
			</g>
		</g>
		<g>
			<defs>
				<path id="SVGID_1_" d="M228.9,327.6c-0.4,0.2-1.1,0.5-2.1,0.7c-2.3,0.3-4.1-0.8-4.5-3.3c-0.3-2.4,1.1-4.3,3.6-4.6
					c1-0.1,1.7,0,1.9,0.1l-0.1,0.8c-0.4-0.1-1-0.2-1.7-0.1c-1.9,0.3-3,1.6-2.7,3.6c0.3,1.9,1.6,2.9,3.5,2.7c0.6-0.1,1.3-0.3,1.6-0.6
					L228.9,327.6z M234.7,325.5c0.1,0.6,0.2,1.1,0.3,1.5l-0.9,0.1l-0.2-0.9l0,0c-0.2,0.5-0.7,1.1-1.8,1.3c-0.9,0.1-2.1-0.2-2.3-2.1
					l-0.5-3.2l1-0.1l0.4,3.1c0.1,1,0.6,1.7,1.5,1.6c0.7-0.1,1.1-0.6,1.2-1.1c0-0.2,0-0.3,0-0.5l-0.5-3.4l1-0.1L234.7,325.5z
					 M236.1,323c-0.1-0.6-0.2-1.2-0.3-1.7l0.9-0.1l0.2,1.1l0,0c0.2-0.8,0.7-1.3,1.4-1.4c0.1,0,0.2,0,0.3,0l0.1,0.9
					c-0.1,0-0.2,0-0.4,0c-0.7,0.1-1.2,0.7-1.2,1.5c0,0.1,0,0.3,0,0.5l0.4,2.9l-1,0.1L236.1,323z M240.2,325.3
					c0.3,0.1,0.9,0.3,1.4,0.2c0.8-0.1,1.1-0.5,1-1c-0.1-0.5-0.4-0.7-1.2-0.9c-1.1-0.2-1.6-0.7-1.7-1.3c-0.1-0.9,0.5-1.7,1.8-1.9
					c0.6-0.1,1.1,0,1.5,0.1l-0.2,0.8c-0.2-0.1-0.7-0.2-1.2-0.2c-0.6,0.1-0.9,0.5-0.9,0.9c0.1,0.5,0.4,0.6,1.2,0.8
					c1,0.2,1.6,0.6,1.7,1.4c0.1,1-0.6,1.8-1.9,2c-0.6,0.1-1.2,0-1.7-0.1L240.2,325.3z M250,322.1c0.3,2-1.1,3.1-2.5,3.3
					c-1.6,0.2-2.9-0.7-3.2-2.4c-0.3-1.8,0.8-3.1,2.4-3.3C248.5,319.4,249.8,320.4,250,322.1z M245.5,322.8c0.2,1.2,1,2,2,1.9
					c1-0.1,1.6-1.1,1.4-2.4c-0.1-0.9-0.8-2-2-1.9C245.7,320.5,245.3,321.7,245.5,322.8z M254.3,324.3l-1.1-7.7l1.1-0.2l3.1,3.5
					c0.7,0.8,1.3,1.6,1.8,2.3l0,0c-0.2-1-0.4-1.9-0.6-3.1l-0.5-3.2l1-0.1l1.1,7.7l-1,0.1l-3.1-3.5c-0.7-0.8-1.3-1.6-1.9-2.4l0,0
					c0.2,1,0.3,1.9,0.5,3.2l0.5,3.3L254.3,324.3z M266.9,319.7c0.3,2-1.1,3.1-2.5,3.3c-1.6,0.2-2.9-0.7-3.2-2.4
					c-0.3-1.8,0.8-3.1,2.4-3.3C265.4,317,266.6,318,266.9,319.7z M262.3,320.4c0.2,1.2,1,2,2,1.9c1-0.1,1.6-1.1,1.4-2.4
					c-0.1-0.9-0.8-2-2-1.9C262.6,318.2,262.2,319.3,262.3,320.4z M268.1,316.8l1.6,2.9c0.3,0.5,0.5,0.9,0.7,1.3l0,0
					c0.1-0.5,0.2-1,0.3-1.5l0.7-3.3l1.1-0.2L271,322l-1,0.1l-3-5.2L268.1,316.8z M278.9,318c0.3,2-1.1,3.1-2.5,3.3
					c-1.6,0.2-2.9-0.7-3.2-2.4c-0.3-1.8,0.8-3.1,2.4-3.3C277.4,315.3,278.7,316.3,278.9,318z M274.4,318.7c0.2,1.2,1,2,2,1.9
					c1-0.1,1.6-1.1,1.4-2.4c-0.1-0.9-0.8-2-2-1.9C274.6,316.5,274.2,317.7,274.4,318.7z"/>
			</defs>
			<clipPath id="SVGID_2_">
				<use xlink:href="#SVGID_1_"  style="overflow:visible;"/>
			</clipPath>
			<polygon class="st18" points="205.7,318.3 285.3,312.5 289.3,326.3 208.3,335.5 			"/>
		</g>
	</g>
</g>
</svg>
